<svg id="Layer_1" data-name="Layer 1" xmlns="http://www.w3.org/2000/svg" viewBox="0 0 1280 769"><defs><style>.cls-1{fill:#0c0f16;}.cls-2{fill:#fff;}.cls-3{fill:#f90;}.cls-4{fill:#3c0;}</style></defs><rect class="cls-1" width="1280" height="769"/><rect class="cls-2" x="418.19" y="340.92" width="28.13" height="111.5"/><path class="cls-2" d="M568.81,366.76v85.66H538.88V365.08H503.35v87.34H475V340.92H543A25.84,25.84,0,0,1,568.81,366.76Z" transform="translate(0 0)"/><path class="cls-3" d="M969.72,296.2v44.72H929.87a46.87,46.87,0,0,0-46.79,46.79v17.53a46.64,46.64,0,0,0,6.11,23.14,47.28,47.28,0,0,0,41.06,24h69.38V296.2Zm0,132.18H942.15a29.63,29.63,0,0,1-29.54-29.53v-4.22a29.64,29.64,0,0,1,29.54-29.55h27.57Z" transform="translate(0 0)"/><path class="cls-3" d="M1031.49,341v22.49h73.22v23.3h-58.79A29.64,29.64,0,0,0,1025,408a29.36,29.36,0,0,0-.92,7.29V423a29.12,29.12,0,0,0,.52,5.49c.12.6.24,1.2.4,1.78a29.61,29.61,0,0,0,28.61,22.26h81v-88A23.54,23.54,0,0,0,1111.1,341Zm73.22,89.24h-42.89a11.65,11.65,0,0,1,0-22.23h42.89Z" transform="translate(0 0)"/><path class="cls-3" d="M668.4,340.92H648.3a46.93,46.93,0,0,0-46.79,46.79v17.53a47.32,47.32,0,0,0,47.19,47.18h21.48a49.63,49.63,0,0,0,49.48-49.48V392.2A51.43,51.43,0,0,0,668.4,340.92Zm21.73,61a29.54,29.54,0,0,1-59.08,0v-10.5a29.54,29.54,0,0,1,59.08,0Z" transform="translate(0 0)"/><path class="cls-3" d="M810.41,340.92h-20.1a46.93,46.93,0,0,0-46.79,46.79v17.53a47.32,47.32,0,0,0,47.19,47.18h21.48a49.63,49.63,0,0,0,49.48-49.48V392.2A51.43,51.43,0,0,0,810.41,340.92Zm21.73,61a29.54,29.54,0,0,1-59.08,0v-10.5a29.54,29.54,0,0,1,59.08,0Z" transform="translate(0 0)"/><path class="cls-3" d="M720.21,487.54c0,32.12-26.69,58.16-59.62,58.16S601,519.66,601,487.54c0-1.84.09-3.65.26-5.45h19.12a37.7,37.7,0,0,0-.38,5.45c0,21.89,18.18,39.62,40.61,39.62s40.62-17.73,40.62-39.62a39.17,39.17,0,0,0-.38-5.45H720C720.12,483.89,720.21,485.7,720.21,487.54Z" transform="translate(0 0)"/><path class="cls-4" d="M420.88,509v0a9.84,9.84,0,0,1-9.81,9.63H302.79c-.56-4-.32-9,1.73-11.68,7.21-9.44,9.34-22.38,9.52-34.07a45.31,45.31,0,0,1,2-17.56c1.33-5.66,2.65-11.3,4-17,.68-2.93,1.52-5.71,1.1-8.75-.36-2.4-1.69-5.8-4.55-3.68-4.28,3.18-5.05,9-6.46,13.72q-1.17,4-2.36,8c-5,14.11-5.81,2.69-5.81,2.69-.07-1.47-.14-3-.22-4.44l-1.08-22c-.15-3-.9-17.34-6.78-14.66-3.76,1.71-2.81,9.06-2.7,12.11s.23,6,.36,9q.21,6.06.46,12.11c-1.66,17.44-4.16,1-4.16,1,0-.35-.09-.71-.12-1.06q-1.15-9.66-2.32-19.33c-.45-3.8-.18-19.28-6.82-17.77a5.25,5.25,0,0,0-3.28,3.62c-.62,2.65.55,6.79.83,9.51l1.14,11.27c.47,4.8,1,9.59,1.44,14.38,0,8.93-3.53,3.54-3.53,3.54l-1.29-4.42c-2-6.73-3.65-13.66-6-20.27-.67-1.92-6.41-14.6-8.52-8.52-2.31,6.63.84,13.77,2.4,20.17,1.85,7.6,3.73,15.18,5.55,22.78,1.37,5.73,3.44,16.08-5.15,17.13-5.46.65-11.31-2.43-15.88-5.05-3.8-2.19-14.39-7.54-17.05-1a4.62,4.62,0,0,0,.2,3.19c.91,2.91,2.94,3.16,5.46,4.24a39.41,39.41,0,0,1,6.45,3.5A47.1,47.1,0,0,1,251.64,489a11.91,11.91,0,0,0,1.31,1.44c7.6,6.82,19.71,13.16,19.71,24.9a20.11,20.11,0,0,1-.25,3.32H155.84a9.85,9.85,0,0,1-9.69-8.22l89.72-142.58-89.3-137.35a9.85,9.85,0,0,1,9.27-6.63H258.36c1.84,0,14.3.53,14.3,14.94,0,11.75-12.11,18.09-19.71,24.91a11.91,11.91,0,0,0-1.31,1.44,47.1,47.1,0,0,1-10.31,9.62,40.18,40.18,0,0,1-6.45,3.5c-2.52,1.07-4.55,1.33-5.46,4.23a4.66,4.66,0,0,0-.2,3.2c2.66,6.5,13.25,1.14,17.05-1,4.57-2.62,10.42-5.71,15.88-5,8.59,1,6.52,11.39,5.15,17.13-1.82,7.59-3.7,15.18-5.55,22.78-1.56,6.4-4.71,13.53-2.4,20.17,2.11,6.07,7.85-6.6,8.52-8.53,2.34-6.61,4-13.53,6-20.27q.64-2.19,1.29-4.41s3.53-5.39,3.53,3.54c-.48,4.79-1,9.58-1.44,14.38l-1.14,11.26c-.28,2.72-1.45,6.87-.83,9.52a5.27,5.27,0,0,0,3.28,3.62c6.64,1.51,6.37-14,6.82-17.77q1.15-9.66,2.32-19.33c0-.35.08-.71.12-1.06,0,0,2.5-16.4,4.16,1q-.24,6-.46,12.11c-.13,3-.24,6-.36,9s-1.06,10.4,2.7,12.11c5.88,2.68,6.63-11.63,6.78-14.66q.54-11,1.08-22c.08-1.47.15-3,.22-4.44,0,0,.83-11.41,5.81,2.7q1.18,4,2.36,8c1.41,4.73,2.18,10.54,6.46,13.72,2.86,2.12,4.19-1.28,4.55-3.68.42-3-.42-5.82-1.1-8.75-1.32-5.66-2.64-11.3-4-17a45.34,45.34,0,0,1-2-17.57c-.18-11.68-2.31-24.62-9.52-34.06-2.61-3.41-2.29-10.68-1.11-14.63,1.85-6.15,7.41-8.68,13.52-8.68h94.14a9.84,9.84,0,0,1,9.49,7.36h0L329.72,368.22Z" transform="translate(0 0)"/></svg>